<svg width="17" height="16" viewBox="0 0 17 16" fill="none" xmlns="http://www.w3.org/2000/svg">
<path fill-rule="evenodd" clip-rule="evenodd" d="M3.2793 0C1.62244 0 0.279297 1.34315 0.279297 3V9C0.279297 10.6569 1.62244 12 3.2793 12H4.2793V13C4.2793 14.6569 5.62244 16 7.2793 16H13.2793C14.9362 16 16.2793 14.6569 16.2793 13V7C16.2793 5.34315 14.9362 4 13.2793 4H12.2793V3C12.2793 1.34315 10.9362 0 9.2793 0H3.2793ZM10.2793 4V3C10.2793 2.44772 9.83158 2 9.2793 2H3.2793C2.72701 2 2.2793 2.44772 2.2793 3V9C2.2793 9.55228 2.72701 10 3.2793 10H4.2793V7C4.2793 5.34315 5.62244 4 7.2793 4H10.2793ZM6.2793 7C6.2793 6.44772 6.72701 6 7.2793 6H13.2793C13.8316 6 14.2793 6.44772 14.2793 7V13C14.2793 13.5523 13.8316 14 13.2793 14H7.2793C6.72701 14 6.2793 13.5523 6.2793 13V7Z" fill="currentColor"/>
</svg>
