<svg
                        width="19"
                        height="14"
                        viewBox="0 0 19 14"
                        fill="currentColor"
                        xmlns="http://www.w3.org/2000/svg"
                      >
                        <path
                          fillRule="evenodd"
                          clipRule="evenodd"
                          d="M0.720703 3C0.720703 1.34315 2.06385 0 3.7207 0H15.7207C17.3776 0 18.7207 1.34315 18.7207 3V11C18.7207 12.6569 17.3776 14 15.7207 14H3.7207C2.06385 14 0.720703 12.6569 0.720703 11V3ZM4.3203 2L9.98411 7.11265L9.99929 7.12665L15.2609 2H4.3203ZM16.7207 3.36998L11.3826 8.57118L11.3701 8.58315C10.603 9.30518 9.40796 9.30794 8.63753 8.59144L2.7207 3.25039V11C2.7207 11.5523 3.16842 12 3.7207 12H15.7207C16.273 12 16.7207 11.5523 16.7207 11V3.36998Z"
                          fill="currentColor"
                        />
                      </svg>