<svg width="89" height="89" viewBox="0 0 89 89" fill="none" xmlns="http://www.w3.org/2000/svg">
<path d="M42.8607 39.3937C42.5556 35.7451 42.8607 31.6403 42.4052 27.9917C42.4052 23.4308 36.4837 25.2552 33.3226 24.945C33.3226 24.945 31.7329 24.8401 31.7329 22.6646C31.7093 22.1233 31.8824 21.5919 32.2203 21.1687C32.9081 20.4024 34.106 20.5119 35.1309 20.5712C37.331 20.6989 41.1572 20.8266 42.0727 19.3306C43.3253 17.8894 42.838 15.9647 42.5282 14.2772C42.1402 12.3649 42.0236 10.4072 42.182 8.46219C42.3233 6.8659 42.9655 4.93666 41.9497 3.5C41.1344 2.34155 39.5994 1.97669 38.2602 1.97213C36.5657 1.97213 34.9123 2.49207 33.2087 2.32331C31.619 2.17281 30.1523 1.48868 28.6082 1.13294C25.2511 0.353036 22.1583 1.83986 18.8605 2.18192C14.014 2.68361 3.49194 -1.4941 2.46252 6.04494C2.05712 9.07333 3.35074 12.0242 3.37351 15.0389C3.37351 18.2725 1.62895 21.1139 1.76105 24.4068C1.89314 27.5994 2.89524 30.7464 2.92257 33.9846C2.92257 36.2103 1.20534 41.3366 4.48949 42.1941C7.41835 43.3662 9.55464 40.6069 12.2831 41.551C14.8475 42.4632 17.7263 43.2978 20.1313 41.4643C22.5364 39.6309 20.9877 36.4474 21.6071 33.5878C22.1902 30.906 25.6155 31.1979 26.1621 33.7383C26.4901 35.1978 26.1621 36.8533 26.0437 38.3219C25.9435 39.6035 25.4926 41.852 26.8363 42.6821C27.9498 43.0545 29.1491 43.0847 30.2798 42.7687C31.3229 42.4449 32.3615 42.0253 33.4683 42.0208C34.5752 42.0162 35.5819 42.413 36.6204 42.7003C36.6204 42.6866 43.2479 44.0914 42.8607 39.3937Z" fill="#6C52F2"/>
<path d="M56.9321 42.189C57.2422 41.8939 57.481 41.5318 57.6302 41.1302C57.7794 40.7287 57.8351 40.2984 57.793 39.8721C57.7047 39.0221 57.537 38.1822 57.2919 37.3636C57.0221 36.2071 56.9012 35.0208 56.9321 33.8335C56.9321 32.8986 57.1553 31.8268 57.9706 31.3616C59.0593 30.7413 60.4759 31.731 60.8448 32.9305C61.2138 34.13 60.8904 35.4207 60.7355 36.6658C60.5767 37.9608 60.5982 39.2716 60.7993 40.5607C60.8272 41.0269 61.0193 41.468 61.3413 41.8059C61.6247 42.0096 61.9557 42.1368 62.3024 42.1753C65.5847 42.7992 68.9535 42.8147 72.2414 42.2209C73.4029 42.0613 73.4804 40.6611 73.4621 39.5665L73.371 35.0604C73.3096 34.3087 73.3899 33.5521 73.6079 32.8301C73.722 32.4704 73.9336 32.1495 74.2191 31.9031C74.5046 31.6567 74.8528 31.4945 75.2249 31.4345C75.6041 31.4295 75.977 31.5328 76.2997 31.7323C76.6223 31.9318 76.8816 32.2193 77.0469 32.5611C77.3683 33.2446 77.5362 33.9902 77.5389 34.7457C77.6482 36.537 77.5841 38.3348 77.3475 40.1138C77.2098 40.6664 77.2546 41.2489 77.4751 41.7739C77.9306 42.5173 78.9372 42.5949 79.8027 42.5858L82.9639 42.5538C83.8713 42.6167 84.7805 42.4603 85.6149 42.0977C86.0805 41.8716 86.4773 41.5247 86.764 41.0933C87.0508 40.6619 87.217 40.1615 87.2455 39.644C87.6755 36.0491 87.5357 32.4088 86.831 28.8577C86.831 28.8577 86.453 23.745 87.5872 19.4395C88.9537 15.6769 87.2 11.1753 87.4141 7.54947C87.528 5.602 87.4369 3.24405 85.7515 2.25435C83.7929 1.10502 81.3924 2.76516 79.1194 2.81989C77.6072 2.85638 76.186 2.17226 74.7193 1.79827C73.2526 1.42428 71.4762 1.45621 70.4923 2.61009C69.5084 3.76398 69.7908 5.6248 69.8819 7.21653C69.9507 8.44201 69.8418 9.671 69.5585 10.8652C69.2715 12.0647 68.4699 13.4557 67.24 13.328C66.4292 13.2414 65.8735 12.5071 65.4955 11.7774C64.9067 10.5741 64.6414 9.23792 64.7257 7.90065C64.8304 6.26331 65.418 4.46179 64.5252 3.08442C63.76 1.90772 62.1703 1.56567 60.7674 1.68425C59.3644 1.80283 58.0344 2.28627 56.6087 2.32276C55.1829 2.35925 53.9258 1.98982 52.5775 1.86668C51.2292 1.74354 49.7397 1.99894 48.8287 2.99776C48.2238 3.77591 47.8483 4.708 47.7446 5.68865C47.4836 7.13005 47.3314 8.58908 47.2891 10.0534C47.2254 12.4296 47.4486 14.8194 47.1297 17.1774C46.9293 18.6825 46.5011 20.1602 46.369 21.6789C46.0456 25.3549 47.444 29.0036 47.28 32.6933C47.1935 34.7274 46.3189 39.831 48.2502 41.5048C48.8788 42.1616 49.8764 42.2711 50.7828 42.3349C52.8052 42.4854 54.855 42.6268 56.8501 42.2437L56.9321 42.189Z" fill="#FF8BB0"/>
<path d="M77.4604 86.959C77.1497 86.6641 76.9102 86.3021 76.7603 85.9007C76.6103 85.4992 76.5538 85.0687 76.595 84.6421C76.687 83.7923 76.8562 82.9526 77.1006 82.1336C77.3704 80.9771 77.4913 79.7908 77.4604 78.6035C77.4604 77.6914 77.2327 76.5968 76.4219 76.1316C75.3332 75.5113 73.9121 76.501 73.5477 77.7005C73.1833 78.9 73.5021 80.1907 73.657 81.4358C73.8165 82.7309 73.7935 84.042 73.5887 85.3308C73.5623 85.7964 73.3719 86.2376 73.0512 86.5759C72.7667 86.7776 72.4363 86.9047 72.0901 86.9453C68.8078 87.5692 65.4389 87.5847 62.1511 86.9909C60.9895 86.8313 60.9303 85.4128 60.9303 84.3319L61.0214 79.8304C61.0829 79.0787 61.0026 78.3221 60.7846 77.6002C60.6705 77.2405 60.4589 76.9195 60.1734 76.6731C59.8879 76.4267 59.5397 76.2645 59.1676 76.2045C58.7884 76.2 58.4158 76.3036 58.0933 76.503C57.7707 76.7025 57.5113 76.9897 57.3456 77.3311C57.0256 78.0149 56.8593 78.7606 56.8582 79.5157C56.7495 81.3069 56.8121 83.1045 57.0449 84.8838C57.1874 85.4345 57.1425 86.0171 56.9174 86.5394C56.4619 87.2873 55.4552 87.3649 54.5943 87.3558L51.4058 87.3238C50.4999 87.3867 49.5922 87.2302 48.7594 86.8678C48.2937 86.6416 47.8969 86.2948 47.6102 85.8633C47.3235 85.4319 47.1572 84.9315 47.1287 84.414C46.6987 80.8192 46.8386 77.1788 47.5432 73.6277C47.5432 73.6277 47.9213 68.515 46.7825 64.2096C45.4434 60.4469 47.1743 55.9453 46.9602 52.3195C46.8463 50.372 46.9374 48.0141 48.6227 47.0244C50.5814 45.875 52.9819 47.5352 55.2548 47.5899C56.7671 47.6264 58.1882 46.9423 59.6549 46.5683C61.1216 46.1943 62.8981 46.2262 63.8774 47.3801C64.8567 48.534 64.5834 50.3948 64.4923 51.9866C64.4235 53.212 64.5324 54.441 64.8157 55.6352C65.1027 56.8347 65.9044 58.2258 67.1342 58.0981C67.9405 58.0114 68.5007 57.2771 68.8788 56.5474C69.4679 55.3426 69.7333 54.0049 69.6486 52.6661C69.5438 51.0288 68.9517 49.2318 69.849 47.8544C70.6142 46.6777 72.2039 46.3357 73.6023 46.4543C75.0007 46.5728 76.3627 47.0563 77.7656 47.0928C79.1685 47.1293 80.4439 46.7598 81.7968 46.6595C83.1496 46.5592 84.6345 46.7918 85.5455 47.7906C86.206 48.5158 86.4565 49.5191 86.6296 50.4815C86.8906 51.9229 87.0429 53.3819 87.0851 54.8462C87.1489 57.2224 86.9257 59.6122 87.2445 61.9702C87.445 63.4753 87.8686 64.953 88.0052 66.4672C88.3286 70.1478 86.9302 73.7964 87.0942 77.4861C87.1853 79.5203 88.0553 84.6238 86.1286 86.2976C85.5 86.9544 84.5024 87.0639 83.5914 87.1277C81.569 87.2782 79.5193 87.4196 77.5287 87.0365L77.4604 86.959Z" fill="#6C52F2"/>
<path d="M7.04911 86.8463C10.0019 85.8597 13.1909 85.8342 16.1591 86.7734C17.4983 87.2021 18.7919 87.8223 20.1857 88.0185C23.0417 88.4153 25.8157 86.9604 28.6853 86.6502C32.4432 86.2534 36.3696 87.8315 39.9453 86.6046C41.1205 86.1987 42.2501 85.4279 42.6783 84.2649C43.5574 81.9845 41.4165 79.5353 41.5942 77.077C41.7217 75.2938 43.0563 73.7112 42.9288 71.9324C42.7876 69.9485 40.706 68.4799 38.72 68.5757C37.4172 68.6395 36.192 69.2233 34.8938 69.3875C34.8938 69.3875 30.0609 71.2346 30.0609 66.651C30.1703 65.6248 31.227 64.9909 32.2018 64.6534C33.9934 64.0288 35.9089 63.8458 37.7862 64.1197C38.5234 64.2897 39.2817 64.3497 40.0364 64.2976C42.1043 63.9738 43.1793 61.4699 42.865 59.3993C42.66 58.031 42.0315 56.7266 41.954 55.3401C41.8675 53.306 42.9926 51.1214 42.0269 49.3244C41.1751 47.7372 39.0616 47.3131 37.276 47.5457C35.4905 47.7783 33.7687 48.4943 31.9695 48.4579C29.692 48.4579 27.6286 47.2812 25.4148 46.8068C23.6595 46.4399 21.8432 46.4851 20.1083 46.9391C18.6735 47.3085 17.2933 47.9516 15.8129 48.0839C13.8178 48.2617 11.8774 47.5001 9.92787 47.0394C7.97833 46.5788 5.71906 46.4876 4.17947 47.7692C2.72187 48.9869 2.35747 51.0803 2.43035 52.9822C2.50323 54.8841 2.96784 56.7722 2.75831 58.6604C2.46224 61.3467 0.845214 63.8096 0.863434 66.5142C0.863434 68.749 2.01129 70.8105 2.46224 72.9997C2.80838 74.9608 2.80838 76.9676 2.46224 78.9287C2.18438 80.8032 1.7881 82.7598 2.40302 84.5477C3.01795 86.3355 5.13602 87.7403 6.81681 86.8874L7.04911 86.8463Z" fill="#FF8BB0"/>
</svg>
