<svg
                        width="17"
                        height="14"
                        viewBox="0 0 17 14"
                        fill="currentColor"
                        xmlns="http://www.w3.org/2000/svg"
                      >
                        <path
                          fillRule="evenodd"
                          clipRule="evenodd"
                          d="M16.2793 2.12454C15.6911 2.3813 15.058 2.55421 14.3941 2.63229C15.0719 2.23301 15.5924 1.60107 15.8372 0.848099C15.2036 1.21804 14.5002 1.4858 13.7531 1.63094C13.1542 1.00425 12.3004 0.612305 11.357 0.612305C9.54428 0.612305 8.07451 2.05642 8.07451 3.83747C8.07451 4.09003 8.10384 4.3363 8.15984 4.57262C5.43149 4.43848 3.01298 3.15418 1.39389 1.20284C1.11124 1.67915 0.949652 2.23301 0.949652 2.82407C0.949652 3.94279 1.52828 4.92999 2.40982 5.50848C1.87119 5.49171 1.36562 5.34656 0.922453 5.105V5.14535C0.922453 6.70841 2.05464 8.01158 3.55534 8.30868C3.28016 8.38204 2.99005 8.42186 2.69087 8.42186C2.47915 8.42186 2.2733 8.40142 2.07278 8.3637C2.49035 9.64485 3.70307 10.5776 5.13924 10.6038C4.01611 11.4683 2.60074 11.9845 1.06271 11.9845C0.797128 11.9845 0.535813 11.9693 0.279297 11.9389C1.732 12.8538 3.45722 13.3882 5.31096 13.3882C11.3484 13.3882 14.6501 8.47373 14.6501 4.21212C14.6501 4.07221 14.6474 3.93284 14.6405 3.79503C15.2826 3.33915 15.8393 2.77115 16.2793 2.12454Z"
                          fill="currentColor"
                        />
                      </svg>