<?xml version="1.0" standalone="no"?>
<!DOCTYPE svg PUBLIC "-//W3C//DTD SVG 20010904//EN"
 "http://www.w3.org/TR/2001/REC-SVG-20010904/DTD/svg10.dtd">
<svg version="1.0" xmlns="http://www.w3.org/2000/svg"
 width="700.000000pt" height="700.000000pt" viewBox="0 0 700.000000 700.000000"
 preserveAspectRatio="xMidYMid meet">
<metadata>
Created by potrace 1.14, written by Peter Selinger 2001-2017
</metadata>
<g transform="translate(0.000000,700.000000) scale(0.100000,-0.100000)"
fill="#000000" stroke="none">
<path d="M1019 6996 c-2 -2 -22 -6 -44 -10 -155 -22 -315 -81 -440 -162 -262
-167 -437 -417 -510 -729 -4 -16 -10 -39 -13 -50 -4 -11 -7 -1143 -8 -2515 -2
-2116 0 -2507 12 -2575 67 -376 299 -682 644 -847 55 -26 167 -67 205 -74 11
-2 43 -9 70 -16 76 -20 5056 -19 5135 0 115 29 195 55 259 85 301 142 514 382
616 693 57 174 54 38 52 2734 -1 1367 -6 2496 -9 2510 -4 14 -10 39 -14 55
-31 157 -112 329 -216 463 -178 228 -414 369 -713 426 -70 13 -385 15 -2551
16 -1359 0 -2473 -2 -2475 -4z"/>
</g>
</svg>
