<svg width="32" height="32" viewBox="0 0 32 32" fill="none" xmlns="http://www.w3.org/2000/svg">
<path fill-rule="evenodd" clip-rule="evenodd" d="M7.72016 5.95285C7.72016 7.56264 6.49444 8.86541 4.57764 8.86541C2.73551 8.86541 1.5098 7.56264 1.54773 5.95285C1.5098 4.26483 2.73548 3 4.61435 3C6.49441 3 7.68341 4.26483 7.72016 5.95285ZM1.70184 29.9171V11.1663H7.52929V29.9159H1.70184V29.9171Z" fill="#313F52"/>
<path fill-rule="evenodd" clip-rule="evenodd" d="M12.201 17.1495C12.201 14.8107 12.1239 12.8168 12.0469 11.1679H17.1086L17.3777 13.7367H17.4927C18.2596 12.5477 20.1764 10.7471 23.2822 10.7471C27.1158 10.7471 29.9917 13.2779 29.9917 18.7972V29.9188H24.1641V19.5274C24.1641 17.1104 23.3213 15.4626 21.2125 15.4626C19.6015 15.4626 18.6437 16.5746 18.2608 17.6474C18.1067 18.0314 18.0308 18.5672 18.0308 19.1054V29.9188H12.2033V17.1495H12.201Z" fill="#313F52"/>
</svg>
