<svg width="32" height="32" viewBox="0 0 32 32" fill="none" xmlns="http://www.w3.org/2000/svg">
<path fill-rule="evenodd" clip-rule="evenodd" d="M31.0298 6.57082C29.889 7.07761 28.6614 7.41891 27.3737 7.57301C28.6883 6.78491 29.6977 5.53759 30.1724 4.05135C28.9437 4.78154 27.5795 5.31005 26.1305 5.59654C24.9691 4.35957 23.3132 3.58594 21.4836 3.58594C17.9682 3.58594 15.1178 6.43636 15.1178 9.95182C15.1178 10.4503 15.1746 10.9364 15.2832 11.4029C9.99197 11.1381 5.30161 8.60314 2.1616 4.75155C1.61344 5.69169 1.30006 6.78492 1.30006 7.95157C1.30006 10.1597 2.42223 12.1083 4.13186 13.2501C3.08726 13.217 2.10678 12.9305 1.24731 12.4537V12.5333C1.24731 15.6185 3.44304 18.1908 6.35345 18.7772C5.81977 18.922 5.25713 19.0006 4.67692 19.0006C4.26631 19.0006 3.86709 18.9602 3.47821 18.8858C4.28803 21.4146 6.63994 23.2555 9.4252 23.3073C7.24705 25.0138 4.50212 26.0325 1.51932 26.0325C1.00426 26.0325 0.497478 26.0025 0 25.9425C2.81732 27.7484 6.16314 28.8033 9.75823 28.8033C21.4671 28.8033 27.8702 19.103 27.8702 10.6913C27.8702 10.4152 27.865 10.1401 27.8515 9.86805C29.0968 8.96824 30.1766 7.8471 31.0298 6.57082Z" fill="#313F52"/>
</svg>
