<svg width="316" height="496" viewBox="0 0 316 496" fill="none" xmlns="http://www.w3.org/2000/svg">
<path d="M315.856 343.513C315.856 446.653 315.852 549.793 315.866 652.933C315.866 659.235 314.317 665.088 310.955 670.402C305.573 678.907 297.832 683.921 287.917 685.551C286.388 685.803 284.815 685.888 283.262 685.888C200.048 685.902 116.835 685.902 33.6208 685.902C17.6032 685.902 3.88731 674.203 1.36321 658.379C1.06562 656.513 0.981136 654.597 0.980259 652.704C0.960234 604.13 0.964473 555.556 0.964473 506.983C0.964473 349.374 0.967981 191.765 0.951172 34.1568C0.951172 28.1186 2.29091 22.4565 5.38491 17.2831C10.572 8.61031 18.1487 3.28322 28.1346 1.50397C29.7566 1.21486 31.4174 1.0054 33.0613 0.998679C43.9257 0.953807 54.7903 0.968163 65.655 0.977339C68.4171 0.979239 70.0072 2.41296 70.2948 5.15295C70.4061 6.21234 70.4712 7.28065 70.4816 8.3456C70.504 10.6114 70.8481 12.8178 71.7459 14.8991C74.5608 21.4245 79.4548 25.2527 86.5541 26.127C87.8057 26.2812 89.0781 26.3214 90.3408 26.3216C136.235 26.3311 182.129 26.329 228.024 26.3305C231.334 26.3305 234.531 25.7848 237.435 24.1294C243.457 20.6973 246.647 15.5092 246.917 8.55666C246.966 7.29658 247 6.033 247.127 4.77979C247.34 2.67474 248.974 1.14426 251.1 0.983917C251.44 0.958338 251.782 0.968163 252.123 0.968163C262.403 0.968163 272.683 0.968163 282.963 0.976024C298.528 0.992979 311.723 11.5228 315.101 26.7019C315.563 28.7773 315.636 30.9421 315.843 33.0699C315.918 33.8423 315.856 34.6279 315.856 35.4074C315.856 138.109 315.856 240.811 315.856 343.513Z" fill="#DAE0E7"/>
</svg>
